<svg xmlns="http://www.w3.org/2000/svg" viewBox="0 0 560 350" role="img" aria-labelledby="title">
  <title id="title">Taaqa</title>
  <g fill="#ff7900">
    <path d="M165 207a115 115 0 0 1 230 0h-42a73 73 0 0 0-146 0z"/>
    <rect x="267" y="17" width="26" height="82" rx="13"/>
    <rect x="163" y="58" width="25" height="78" rx="12.5" transform="rotate(-31 175.5 97)"/>
    <rect x="372" y="58" width="25" height="78" rx="12.5" transform="rotate(31 384.5 97)"/>
    <rect x="88" y="129" width="25" height="86" rx="12.5" transform="rotate(-56 100.5 172)"/>
    <rect x="447" y="129" width="25" height="86" rx="12.5" transform="rotate(56 459.5 172)"/>
    <rect x="40" y="194" width="94" height="26" rx="13"/>
    <rect x="426" y="194" width="94" height="26" rx="13"/>
  </g>
  <text x="280" y="325" fill="#07172f" text-anchor="middle" font-family="Arial Black, Arial, Helvetica, sans-serif" font-size="108" font-weight="900" letter-spacing="-6">TAAQA</text>
</svg>
